<?xml version="1.0" encoding="utf-8"?>
<!-- Generator: Adobe Illustrator 19.0.0, SVG Export Plug-In . SVG Version: 6.00 Build 0)  -->
<svg version="1.1" id="Layer_1" xmlns="http://www.w3.org/2000/svg" xmlns:xlink="http://www.w3.org/1999/xlink" x="0px" y="0px"
	 viewBox="-455 229.7 48 75.3" style="enable-background:new -455 229.7 48 75.3;" xml:space="preserve">
<style type="text/css">
	.st0{fill:#D2B37F;}
	.st1{fill:#E8D8BD;}
</style>
<path class="st0" d="M-442.4,275.4c1.2-2.7,3.2-4.9,5.7-6.3l20.7-11.9c1.1-0.6,2.3,0.8,1.4,1.8l-38.4,45.6c-0.9,1-2.5,0-1.9-1.2
	L-442.4,275.4z"/>
<path class="st1" d="M-429.2,289.3c-1-0.6-0.5-2.2,0.7-2.1l13,0.4c1.8,0.1,3.4,1.2,4.1,2.9l4.4,11.2c0.4,1.1-0.8,2-1.7,1.4
	L-429.2,289.3z"/>
<path class="st1" d="M-422,230.6c0.6-1.4,2.8-1.1,2.9,0.5l2.3,17.2c0.3,2.4-0.8,4.7-2.9,6l-13.8,8.2c-1.4,0.8-2.8-0.6-2.2-1.9
	L-422,230.6z"/>
</svg>
