<?xml version="1.0" encoding="utf-8"?>
<!-- Generator: Adobe Illustrator 19.0.0, SVG Export Plug-In . SVG Version: 6.00 Build 0)  -->
<svg version="1.1" id="Layer_1" xmlns="http://www.w3.org/2000/svg" xmlns:xlink="http://www.w3.org/1999/xlink" x="0px" y="0px"
	 viewBox="0 0 253.6 48" style="enable-background:new 0 0 253.6 48;" xml:space="preserve">
<style type="text/css">
	.st0{fill:#D2B37F;}
	.st1{fill:#E8D8BD;}
	.st2{fill-rule:evenodd;clip-rule:evenodd;}
</style>
<g>
	<path class="st0" d="M12.6,18.4c1.2-2.7,3.2-4.9,5.7-6.3L39,0.2c1.1-0.6,2.3,0.8,1.4,1.8L2,47.6c-0.9,1-2.5,0-1.9-1.2L12.6,18.4z"
		/>
	<path class="st1" d="M25.8,32.3c-1-0.6-0.5-2.2,0.7-2.1l13,0.4c1.8,0.1,3.4,1.2,4.1,2.9l4.4,11.2c0.4,1.1-0.8,2-1.7,1.4L25.8,32.3z
		"/>
	<path class="st2" d="M184.7,18.7L184.7,18.7c-0.8,1.6-1.8,2.9-3.2,3.9c-1.4,0.9-2.9,1.4-4.8,1.4c-2.3,0-3.8-0.6-4.9-1.7
		c-1.1-1.2-1.7-2.7-1.7-4.8c0-2,0.4-3.8,1.2-5.4l0,0c0.8-1.7,1.8-2.9,3.2-3.9l0,0c1.4-0.9,3-1.4,4.8-1.4c2.2,0,3.8,0.6,4.9,1.8l0,0
		l0,0c1.1,1.1,1.7,2.7,1.7,4.8C185.8,15.3,185.4,17.1,184.7,18.7z M169.3,29.1L169.3,29.1L169.3,29.1c2,1.1,4.4,1.6,7,1.6
		c3.2,0,6.1-0.8,8.6-2.3l0,0c2.5-1.6,4.4-3.7,5.8-6.5c1.4-2.7,2.1-5.7,2.1-9c0-2.5-0.5-4.7-1.6-6.7c-1.1-2-2.6-3.5-4.6-4.6
		c-2-1.1-4.3-1.6-6.9-1.6c-3.2,0-6.1,0.8-8.6,2.4c-2.5,1.6-4.5,3.7-5.8,6.4l0,0c-1.3,2.7-2,5.7-2,9c0,2.5,0.5,4.8,1.6,6.7l0,0
		C165.8,26.5,167.3,28,169.3,29.1z"/>
	<path d="M76.4,19.7c-0.3,0-0.5,0.2-0.5,0.4l-2,9.7c-0.1,0.3-0.3,0.4-0.5,0.4h-6.2c-0.3,0-0.6-0.3-0.5-0.7l5.7-28.8
		c0.1-0.3,0.3-0.4,0.5-0.4h21.3c0.3,0,0.6,0.3,0.5,0.7l-1.1,5.4c-0.1,0.3-0.3,0.4-0.5,0.4H78.9c-0.3,0-0.5,0.2-0.5,0.4l-1,5.1
		c-0.1,0.3,0.2,0.7,0.5,0.7h12c0.3,0,0.6,0.3,0.5,0.7l-1.1,5.5c-0.1,0.3-0.3,0.4-0.5,0.4H76.4z"/>
	<path d="M98.3,0.8c0.1-0.3,0.3-0.4,0.5-0.4h6.2c0.3,0,0.6,0.3,0.5,0.7l-5.7,28.8c-0.1,0.3-0.3,0.4-0.5,0.4h-6.2
		c-0.3,0-0.6-0.3-0.5-0.7L98.3,0.8z"/>
	<path d="M133.4,6.5c-0.1,0.3-0.3,0.4-0.5,0.4h-8.2c-0.3,0-0.5,0.2-0.5,0.4l-4.4,22.5c-0.1,0.3-0.3,0.4-0.5,0.4h-6.2
		c-0.3,0-0.6-0.3-0.5-0.7l4.4-22.1c0.1-0.3-0.2-0.7-0.5-0.7h-7.8c-0.3,0-0.6-0.3-0.5-0.7l1.1-5.5c0.1-0.3,0.3-0.4,0.5-0.4H134
		c0.3,0,0.6,0.3,0.5,0.7L133.4,6.5z"/>
	<path class="st2" d="M143.8,7.1c0.1-0.3,0.3-0.4,0.5-0.4h5.9c1.5,0,2.5,0.2,3,0.6c0.5,0.3,0.7,0.7,0.7,1.4c0,1.2-0.4,2-1.2,2.5
		c-0.9,0.6-2.2,1-4,1h-5.3c-0.3,0-0.6-0.3-0.5-0.7L143.8,7.1z M151.7,23.1c0.9-0.6,1.3-1.4,1.3-2.6c0-0.9-0.3-1.3-0.7-1.6l0,0l0,0
		c-0.6-0.4-1.5-0.6-3.1-0.6H142c-0.3,0-0.5,0.2-0.5,0.4l-0.9,4.7c-0.1,0.3,0.2,0.7,0.5,0.7h6.3C149.4,24.1,150.8,23.7,151.7,23.1
		L151.7,23.1z M158.3,14.5c-0.3,0.2-0.3,0.7,0,1c0.3,0.3,0.6,0.6,0.8,1c0.8,1.2,1.2,2.6,1.2,4.2c0,3.2-1.3,5.7-3.8,7.4
		c-2.4,1.6-5.7,2.4-9.5,2.4h-14.5c-0.3,0-0.6-0.3-0.5-0.7l5.7-28.8c0.1-0.3,0.3-0.4,0.5-0.4h13.2c3,0,5.4,0.6,7.2,1.8
		c1.9,1.3,2.8,3.2,2.8,5.5c0,1.9-0.5,3.6-1.5,5.1l0,0C159.5,13.4,158.9,14,158.3,14.5z"/>
	<path class="st2" d="M215,18.8L215,18.8c0.8-1.6,1.2-3.4,1.2-5.5c0-2.1-0.6-3.6-1.7-4.6l0,0c-1.1-1.1-2.8-1.7-5.2-1.7h-4.4
		c-0.3,0-0.5,0.2-0.5,0.5l-2.8,15.7c-0.1,0.3,0.2,0.6,0.5,0.6h4.5c2,0,3.7-0.5,5.2-1.3C213.1,21.5,214.2,20.3,215,18.8z M198.7,0.8
		c0-0.3,0.3-0.5,0.5-0.5h10.6c2.6,0,5,0.5,7,1.5c2,1,3.6,2.5,4.7,4.4c1.1,1.9,1.6,4.1,1.6,6.6c0,3.4-0.7,6.4-2.1,9.1
		c-1.4,2.6-3.4,4.7-5.9,6.1c-2.6,1.5-5.5,2.2-8.7,2.2H194c-0.3,0-0.6-0.3-0.5-0.6L198.7,0.8z"/>
	<path d="M230.6,0.4c0.2,0,0.4,0.1,0.5,0.3l4.5,11.3c0.2,0.4,0.7,0.5,0.9,0.1l9.3-11.6c0.1-0.1,0.3-0.2,0.4-0.2h6.8
		c0.5,0,0.7,0.5,0.4,0.9l-15,18.8c-0.1,0.1-0.1,0.1-0.1,0.2l-1.9,9.5c-0.1,0.3-0.3,0.4-0.5,0.4h-6.2c-0.3,0-0.6-0.3-0.5-0.7l2-10
		c0-0.1,0-0.2,0-0.3l-7.3-18.2c-0.1-0.4,0.1-0.8,0.5-0.8H230.6z"/>
	<path d="M68.4,43.7c0.5,0,0.9-0.1,1.3-0.4c0.4-0.2,0.7-0.6,0.9-1c0.2-0.4,0.3-0.9,0.3-1.5c0-0.6-0.2-1.1-0.5-1.4
		c-0.4-0.3-0.8-0.5-1.5-0.5c-0.5,0-1,0.1-1.4,0.4c-0.4,0.2-0.7,0.6-0.9,1c-0.2,0.4-0.3,0.9-0.3,1.5c0,0.6,0.2,1.1,0.5,1.4
		C67.3,43.5,67.8,43.7,68.4,43.7z M69.5,37.4c0.6,0,1.2,0.1,1.7,0.4c0.5,0.3,0.9,0.7,1.2,1.2s0.4,1.1,0.4,1.8c0,0.8-0.2,1.6-0.6,2.3
		c-0.4,0.7-0.9,1.2-1.5,1.6c-0.6,0.4-1.4,0.6-2.2,0.6c-0.6,0-1.2-0.1-1.6-0.3c-0.3-0.1-0.5-0.3-0.7-0.5c-0.1-0.1-0.4-0.1-0.5,0.1
		l-0.1,0.5c0,0.1-0.1,0.2-0.2,0.2h-1.2c-0.1,0-0.2-0.1-0.2-0.3l2-10.2c0-0.1,0.1-0.2,0.2-0.2h1.3c0.1,0,0.2,0.1,0.2,0.3l-0.6,2.8
		c0,0.2,0.2,0.4,0.4,0.3C68.2,37.5,68.8,37.4,69.5,37.4z"/>
	<path d="M82.9,37.5c0.2,0,0.3,0.2,0.2,0.3l-5,8c-0.5,0.8-1,1.4-1.5,1.7c-0.5,0.3-1,0.5-1.7,0.5c-0.4,0-0.8-0.1-1.1-0.2
		c-0.3-0.1-0.5-0.2-0.7-0.4c-0.1-0.1-0.1-0.2,0-0.3l0.6-0.9c0.1-0.1,0.2-0.1,0.3-0.1c0.3,0.2,0.7,0.3,1.1,0.3c0.3,0,0.6-0.1,0.8-0.2
		c0.2-0.2,0.5-0.4,0.7-0.8l0.2-0.3c0-0.1,0-0.1,0-0.2L75,37.8c0-0.1,0.1-0.3,0.2-0.3h1.3c0.1,0,0.2,0.1,0.2,0.2l1.1,5
		c0,0.2,0.3,0.2,0.4,0.1l3.2-5.1c0-0.1,0.1-0.1,0.2-0.1H82.9z"/>
	<path d="M92.9,36.7c-0.1,0-0.2,0.1-0.2,0.2L92.3,39c0,0.1,0.1,0.3,0.2,0.3h4.3c0.1,0,0.2,0.1,0.2,0.3l-0.2,1.1
		c0,0.1-0.1,0.2-0.2,0.2h-4.5c-0.1,0-0.2,0.1-0.2,0.2l-0.5,2.3c0,0.1,0.1,0.3,0.2,0.3h5.1c0.1,0,0.2,0.1,0.2,0.3l-0.2,1.1
		c0,0.1-0.1,0.2-0.2,0.2h-7c-0.1,0-0.2-0.1-0.2-0.3l1.9-9.6c0-0.1,0.1-0.2,0.2-0.2h6.8c0.1,0,0.2,0.1,0.2,0.3l-0.2,1.1
		c0,0.1-0.1,0.2-0.2,0.2H92.9z"/>
	<path d="M103.1,43.3c0.5,0,0.9-0.1,1.3-0.3c0.4-0.2,0.7-0.5,0.9-0.9c0.2-0.4,0.3-0.8,0.3-1.3c0-0.5-0.2-1-0.5-1.3
		c-0.4-0.3-0.8-0.5-1.5-0.5c-0.5,0-1,0.1-1.4,0.3c-0.4,0.2-0.7,0.5-0.9,0.9c-0.2,0.4-0.3,0.8-0.3,1.3c0,0.5,0.2,1,0.5,1.3
		C102,43.1,102.5,43.3,103.1,43.3z M108,37.5c0.1,0,0.2,0.1,0.2,0.3L107,44c-0.3,1.4-0.8,2.4-1.6,3.1c-0.8,0.6-1.8,1-3.1,1
		c-1.4,0-2.5-0.3-3.4-0.9c-0.1-0.1-0.1-0.2,0-0.3l0.7-1c0.1-0.1,0.2-0.1,0.3-0.1c0.3,0.2,0.6,0.3,1,0.5c0.5,0.2,1,0.2,1.6,0.2
		c0.8,0,1.4-0.2,1.9-0.5c0.4-0.4,0.7-0.9,0.9-1.7c0-0.1-0.1-0.2-0.2-0.1c-0.6,0.4-1.4,0.7-2.2,0.7c-0.7,0-1.2-0.1-1.8-0.4
		c-0.5-0.3-0.9-0.6-1.2-1.1c-0.3-0.5-0.4-1-0.4-1.7c0-0.8,0.2-1.5,0.6-2.1c0.4-0.6,0.9-1.2,1.5-1.5c0.7-0.4,1.4-0.6,2.2-0.6
		c0.6,0,1.1,0.1,1.6,0.3c0.3,0.1,0.5,0.3,0.7,0.5c0.1,0.1,0.4,0.1,0.5-0.1l0.1-0.5c0-0.1,0.1-0.2,0.2-0.2H108z"/>
	<path d="M111.6,34.7c0-0.1,0.1-0.2,0.2-0.2h1.3c0.1,0,0.2,0.1,0.2,0.3l-2,10.2c0,0.1-0.1,0.2-0.2,0.2h-1.3c-0.1,0-0.2-0.1-0.2-0.3
		L111.6,34.7z"/>
	<path d="M118.7,38.8c-0.6,0-1.1,0.2-1.5,0.5c-0.3,0.3-0.6,0.6-0.8,1.1c-0.1,0.1,0.1,0.3,0.2,0.3h3.8c0.1,0,0.2-0.1,0.2-0.2
		c0-0.5-0.2-0.8-0.5-1.1C119.8,39,119.3,38.8,118.7,38.8z M122.3,40.7c0,0.3,0,0.6-0.1,0.9c0,0.1-0.1,0.2-0.2,0.2h-5.6
		c-0.1,0-0.2,0.1-0.2,0.2c0.1,1.1,0.8,1.6,2.2,1.6c0.4,0,0.8-0.1,1.2-0.2c0.3-0.1,0.5-0.2,0.8-0.4c0.1-0.1,0.3-0.1,0.3,0.1l0.5,0.9
		c0.1,0.1,0,0.2,0,0.3c-0.4,0.3-0.8,0.5-1.3,0.7c-0.5,0.2-1.1,0.3-1.7,0.3c-0.8,0-1.4-0.1-2-0.4c-0.6-0.3-1-0.7-1.3-1.2
		c-0.3-0.5-0.5-1.1-0.5-1.8c0-0.8,0.2-1.6,0.6-2.3c0.4-0.7,0.9-1.2,1.6-1.6c0.7-0.4,1.4-0.6,2.3-0.6c1.1,0,1.9,0.3,2.5,0.9
		C122,38.9,122.3,39.7,122.3,40.7z"/>
	<path d="M139.8,35.1c0.1,0,0.2,0.1,0.2,0.3l-1.9,9.6c0,0.1-0.1,0.2-0.2,0.2h-1.2c-0.1,0-0.1,0-0.2-0.1l-3.7-6.4
		c-0.1-0.2-0.4-0.1-0.4,0.1l-1.2,6.3c0,0.1-0.1,0.2-0.2,0.2h-1.4c-0.1,0-0.2-0.1-0.2-0.3l1.9-9.6c0-0.1,0.1-0.2,0.2-0.2h1.2
		c0.1,0,0.1,0,0.2,0.1l3.7,6.4c0.1,0.2,0.4,0.1,0.4-0.1l1.2-6.3c0-0.1,0.1-0.2,0.2-0.2H139.8z"/>
	<path d="M145.1,43.7c0.5,0,0.9-0.1,1.3-0.4c0.4-0.2,0.7-0.6,0.9-1c0.2-0.4,0.3-0.9,0.3-1.5c0-0.6-0.2-1.1-0.5-1.4
		c-0.4-0.3-0.8-0.5-1.5-0.5c-0.5,0-1,0.1-1.4,0.4c-0.4,0.2-0.7,0.6-0.9,1c-0.2,0.4-0.3,0.9-0.3,1.5c0,0.6,0.2,1.1,0.5,1.4
		C144,43.5,144.4,43.7,145.1,43.7z M149.9,37.5c0.1,0,0.2,0.1,0.2,0.3l-1.4,7.2c0,0.1-0.1,0.2-0.2,0.2h-1.3c-0.1,0-0.2-0.1-0.2-0.2
		c0-0.2-0.2-0.3-0.3-0.2c-0.6,0.4-1.2,0.5-2,0.5c-0.6,0-1.2-0.1-1.7-0.4c-0.5-0.3-0.9-0.7-1.2-1.2c-0.3-0.5-0.4-1.1-0.4-1.8
		c0-0.8,0.2-1.6,0.6-2.3c0.4-0.7,0.9-1.2,1.5-1.6c0.7-0.4,1.4-0.6,2.2-0.6c1,0,1.7,0.3,2.2,0.8c0.1,0.1,0.4,0.1,0.4-0.1l0.1-0.4
		c0-0.1,0.1-0.2,0.2-0.2H149.9z"/>
	<path d="M156.1,43.7c0.5,0,0.9-0.1,1.3-0.4c0.4-0.2,0.7-0.6,0.9-1c0.2-0.4,0.3-0.9,0.3-1.5c0-0.6-0.2-1.1-0.5-1.4
		c-0.4-0.3-0.8-0.5-1.5-0.5c-0.5,0-1,0.1-1.4,0.4c-0.4,0.2-0.7,0.6-0.9,1c-0.2,0.4-0.3,0.9-0.3,1.5c0,0.6,0.2,1.1,0.5,1.4
		C154.9,43.5,155.4,43.7,156.1,43.7z M157.1,37.4c0.6,0,1.2,0.1,1.7,0.4c0.5,0.3,0.9,0.7,1.2,1.2c0.3,0.5,0.4,1.1,0.4,1.8
		c0,0.8-0.2,1.6-0.6,2.3c-0.4,0.7-0.9,1.2-1.5,1.6c-0.6,0.4-1.4,0.6-2.2,0.6c-0.6,0-1.2-0.1-1.6-0.3c-0.3-0.1-0.5-0.3-0.7-0.5
		c-0.1-0.1-0.4-0.1-0.5,0.1l-0.1,0.5c0,0.1-0.1,0.2-0.2,0.2h-1.2c-0.1,0-0.2-0.1-0.2-0.3l2-10.2c0-0.1,0.1-0.2,0.2-0.2h1.3
		c0.1,0,0.2,0.1,0.2,0.3l-0.6,2.8c0,0.2,0.2,0.4,0.4,0.3C155.8,37.5,156.4,37.4,157.1,37.4z"/>
	<path d="M164.8,36.2c-0.3,0-0.6-0.1-0.8-0.3c-0.2-0.2-0.3-0.4-0.3-0.7c0-0.3,0.1-0.6,0.3-0.8c0.2-0.2,0.5-0.3,0.9-0.3
		c0.3,0,0.6,0.1,0.8,0.3c0.2,0.2,0.3,0.4,0.3,0.7c0,0.4-0.1,0.6-0.3,0.9C165.5,36.1,165.2,36.2,164.8,36.2z M163.5,37.7
		c0-0.1,0.1-0.2,0.2-0.2h1.3c0.1,0,0.2,0.1,0.2,0.3l-1.4,7.2c0,0.1-0.1,0.2-0.2,0.2h-1.3c-0.1,0-0.2-0.1-0.2-0.3L163.5,37.7z"/>
</g>
</svg>
