<svg xmlns="http://www.w3.org/2000/svg" viewBox="-443 257 52 52" width="48" height="48"><path d="M-398.4 261h-8.4v-2c0-1.1-.8-2-1.9-2s-1.9.9-1.9 2v2h-13v-2c0-1.1-.8-2-1.9-2s-1.9.9-1.9 2v2h-8.4c-4.1 0-7.4 3.6-7.4 8v32c0 4.4 3.3 8 7.4 8h37.1c4.1 0 7.4-3.6 7.4-8v-32c.3-4.4-3-8-7.1-8zm-37.2 4h8.4v2c0 1.1.8 2 1.9 2s1.9-.9 1.9-2v-2h13v2c0 1.1.8 2 1.9 2s1.9-.9 1.9-2v-2h8.4c2.1 0 3.7 1.8 3.7 4v4h-44.6v-4c-.2-2.2 1.5-4 3.5-4zm37.2 40h-37.1c-2.1 0-3.7-1.8-3.7-4v-24h44.6v24c-.1 2.2-1.8 4-3.8 4z"/><path d="M-430 281h-1.9c-1 0-1.9.9-1.9 2s.8 2 1.9 2h1.9c1 0 1.9-.9 1.9-2s-.9-2-1.9-2zM-420.7 281h-1.9c-1 0-1.9.9-1.9 2s.8 2 1.9 2h1.9c1 0 1.9-.9 1.9-2s-.9-2-1.9-2zM-402.1 281h-1.9c-1 0-1.9.9-1.9 2s.8 2 1.9 2h1.9c1 0 1.9-.9 1.9-2s-.9-2-1.9-2zM-411.4 281h-1.9c-1 0-1.9.9-1.9 2s.8 2 1.9 2h1.9c1 0 1.9-.9 1.9-2s-.9-2-1.9-2zM-430 297h-1.9c-1 0-1.9.9-1.9 2s.8 2 1.9 2h1.9c1 0 1.9-.9 1.9-2s-.9-2-1.9-2zM-420.7 297h-1.9c-1 0-1.9.9-1.9 2s.8 2 1.9 2h1.9c1 0 1.9-.9 1.9-2s-.9-2-1.9-2zM-402.1 297h-1.9c-1 0-1.9.9-1.9 2s.8 2 1.9 2h1.9c1 0 1.9-.9 1.9-2s-.9-2-1.9-2zM-411.4 297h-1.9c-1 0-1.9.9-1.9 2s.8 2 1.9 2h1.9c1 0 1.9-.9 1.9-2s-.9-2-1.9-2zM-430 289h-1.9c-1 0-1.9.9-1.9 2s.8 2 1.9 2h1.9c1 0 1.9-.9 1.9-2s-.9-2-1.9-2zM-420.7 289h-1.9c-1 0-1.9.9-1.9 2s.8 2 1.9 2h1.9c1 0 1.9-.9 1.9-2s-.9-2-1.9-2zM-402.1 289h-1.9c-1 0-1.9.9-1.9 2s.8 2 1.9 2h1.9c1 0 1.9-.9 1.9-2s-.9-2-1.9-2zM-411.4 289h-1.9c-1 0-1.9.9-1.9 2s.8 2 1.9 2h1.9c1 0 1.9-.9 1.9-2s-.9-2-1.9-2z"/></svg>