<svg xmlns="http://www.w3.org/2000/svg" xmlns:xlink="http://www.w3.org/1999/xlink"><symbol viewBox="-454 261.2 50.6 38.8" id="icon-arrow-left" xmlns="http://www.w3.org/2000/svg"><path d="M-453.3 282.6l16.1 16.7c.4.4 1.1.7 1.7.7h5.8c1.1 0 1.7-1.4.9-2.2l-13.2-13.7h36c1.4 0 2.5-1.1 2.5-2.5v-1.9c0-1.4-1.1-2.5-2.5-2.5h-36l13.2-13.7c.8-.8.3-2.2-.9-2.2h-5.7c-.6 0-1.3.2-1.7.7l-16.1 16.6c-1 1.1-1 2.9-.1 4z"/></symbol><symbol viewBox="-434.8 261.6 50.6 38.8" id="icon-arrow-right" xmlns="http://www.w3.org/2000/svg"><path d="M-384.9 279l-16.1-16.6c-.4-.5-1.1-.7-1.7-.7h-5.7c-1.2 0-1.7 1.4-.9 2.2l13.2 13.7h-36c-1.4 0-2.5 1.1-2.5 2.5v1.9c0 1.4 1.1 2.5 2.5 2.5h36l-13.2 13.7c-.8.8-.2 2.2.9 2.2h5.8c.6 0 1.3-.3 1.7-.7l16.1-16.7c.9-1.1.9-2.9-.1-4z"/></symbol><symbol viewBox="85.6 -10.1 709.1 540.3" id="icon-back" xmlns="http://www.w3.org/2000/svg"><path d="M741.5 197.9c-38.9-42-93.9-64.2-159.3-64.2H162L270.2 27.9c8.7-8.5 8.9-22.6.3-31.3-8.5-8.7-22.6-8.9-31.3-.3L92.5 139.8l-.6.6c-.4.4-.8.9-1.2 1.3-.4.5-.8.9-1.1 1.5l-.3.5c-.4.5-.7 1.1-1 1.7-.4.6-.6 1.2-.9 1.8l-.6 1.5c-.2.5-.3.8-.3 1l-.1.2c-.2.6-.3 1.2-.5 1.8-.1.6-.2 1.3-.3 2l-.1.9v2.2l.1 1.2c.1.7.2 1.4.3 2 .1.6.3 1.2.4 1.8 0 .1.1.2.1.3.1.3.2.6.3 1l.5 1.3.1.2c.2.6.5 1.1.8 1.7.3.6.6 1.1 1 1.7.1.2.3.4.4.5.3.5.7.9 1.1 1.4 0 .1.1.1.1.2l.4.6 148 144.8c4.2 4.1 9.7 6.3 15.5 6.3 6 0 11.6-2.4 15.8-6.7 4.1-4.2 6.4-9.8 6.3-15.7-.1-5.9-2.4-11.4-6.7-15.6L162 178h420.3c52.7 0 96.5 17.3 126.8 50 26.7 28.8 41.4 67.7 41.4 109.4C750.5 409 704 486 602 486H332.8c-12.2 0-22.1 9.9-22.1 22.1s9.9 22.1 22.1 22.1h269.1c59 0 108.8-20.9 144.2-60.4 31.3-35 48.6-82.1 48.6-132.5 0-52.8-18.9-102.4-53.2-139.4z"/></symbol><symbol viewBox="-154.4 25 374.9 512" id="icon-basket" xmlns="http://www.w3.org/2000/svg"><path d="M220.2 467.2L193 167.6c-.8-8.3-7.7-14.6-16-14.6h-48v-32c0-25.7-10-49.9-28-68-18.1-18-42.3-28-68-28-52.9 0-96 43.1-96 96v32h-48c-8.3 0-15.2 6.3-15.9 14.6l-27.2 299.6c-1.6 17.9 4.4 35.7 16.5 49 12.1 13.2 29.3 20.8 47.3 20.8h246.9c18 0 35.2-7.6 47.3-20.8 11.9-13.3 17.9-31.1 16.3-49zM-31 121c0-35.3 28.7-64 64-64 17.2 0 33.3 6.6 45.3 18.7S97 103.8 97 121v32H-31v-32zm211.1 373.6c-6.1 6.7-14.5 10.4-23.6 10.4H-90.4c-9.1 0-17.5-3.7-23.6-10.4-6.1-6.7-9.1-15.4-8.2-24.5L-96.4 185H-63v48c0 8.8 7.2 16 16 16s16-7.2 16-16v-48H97v48c0 8.8 7.2 16 16 16s16-7.2 16-16v-48h33.4l25.9 285.1c.8 9.1-2.1 17.8-8.2 24.5z"/></symbol><symbol viewBox="-465 271.8 28.4 15.8" id="icon-bootyband" xmlns="http://www.w3.org/2000/svg"><path d="M-463.7 278.9c-.9.2-1.5 1.1-1.3 2l1.2 5.4c.2.9 1.1 1.5 2 1.3l.3-.1c3.9-2 12.8-6.1 20.3-7.1 1.7-.2 3.2-.1 4.3.2l-1.9-8c-.1-.6-.7-.9-1.3-.8-7.3 1-14.3 2.9-21.1 5.9l-2.5 1.2z"/><path d="M-440.9 281.5c-4.8.6-10.1 2.5-14.4 4.3l.2-.1c1.6-.4 3.3-.6 5-.5 2.6.1 6.7.1 10.6-1 2-.7 2.7-1.4 2.9-2 .1-.2 0-.4-.2-.5-1.1-.3-2.4-.4-4.1-.2z"/></symbol><symbol viewBox="-443 257 52 52" id="icon-calendar" xmlns="http://www.w3.org/2000/svg"><path d="M-398.4 261h-8.4v-2c0-1.1-.8-2-1.9-2s-1.9.9-1.9 2v2h-13v-2c0-1.1-.8-2-1.9-2s-1.9.9-1.9 2v2h-8.4c-4.1 0-7.4 3.6-7.4 8v32c0 4.4 3.3 8 7.4 8h37.1c4.1 0 7.4-3.6 7.4-8v-32c.3-4.4-3-8-7.1-8zm-37.2 4h8.4v2c0 1.1.8 2 1.9 2s1.9-.9 1.9-2v-2h13v2c0 1.1.8 2 1.9 2s1.9-.9 1.9-2v-2h8.4c2.1 0 3.7 1.8 3.7 4v4h-44.6v-4c-.2-2.2 1.5-4 3.5-4zm37.2 40h-37.1c-2.1 0-3.7-1.8-3.7-4v-24h44.6v24c-.1 2.2-1.8 4-3.8 4z"/><path d="M-430 281h-1.9c-1 0-1.9.9-1.9 2s.8 2 1.9 2h1.9c1 0 1.9-.9 1.9-2s-.9-2-1.9-2zM-420.7 281h-1.9c-1 0-1.9.9-1.9 2s.8 2 1.9 2h1.9c1 0 1.9-.9 1.9-2s-.9-2-1.9-2zM-402.1 281h-1.9c-1 0-1.9.9-1.9 2s.8 2 1.9 2h1.9c1 0 1.9-.9 1.9-2s-.9-2-1.9-2zM-411.4 281h-1.9c-1 0-1.9.9-1.9 2s.8 2 1.9 2h1.9c1 0 1.9-.9 1.9-2s-.9-2-1.9-2zM-430 297h-1.9c-1 0-1.9.9-1.9 2s.8 2 1.9 2h1.9c1 0 1.9-.9 1.9-2s-.9-2-1.9-2zM-420.7 297h-1.9c-1 0-1.9.9-1.9 2s.8 2 1.9 2h1.9c1 0 1.9-.9 1.9-2s-.9-2-1.9-2zM-402.1 297h-1.9c-1 0-1.9.9-1.9 2s.8 2 1.9 2h1.9c1 0 1.9-.9 1.9-2s-.9-2-1.9-2zM-411.4 297h-1.9c-1 0-1.9.9-1.9 2s.8 2 1.9 2h1.9c1 0 1.9-.9 1.9-2s-.9-2-1.9-2zM-430 289h-1.9c-1 0-1.9.9-1.9 2s.8 2 1.9 2h1.9c1 0 1.9-.9 1.9-2s-.9-2-1.9-2zM-420.7 289h-1.9c-1 0-1.9.9-1.9 2s.8 2 1.9 2h1.9c1 0 1.9-.9 1.9-2s-.9-2-1.9-2zM-402.1 289h-1.9c-1 0-1.9.9-1.9 2s.8 2 1.9 2h1.9c1 0 1.9-.9 1.9-2s-.9-2-1.9-2zM-411.4 289h-1.9c-1 0-1.9.9-1.9 2s.8 2 1.9 2h1.9c1 0 1.9-.9 1.9-2s-.9-2-1.9-2z"/></symbol><symbol viewBox="0 0 50 50" id="icon-caron-down" xmlns="http://www.w3.org/2000/svg"><path fill="none" d="M0 0h50v50H0z"/><path d="M47.25 15l-2.086-2.086L25 33.078 4.836 12.914 2.75 15 25 37.25z"/></symbol><symbol id="icon-cart" viewBox="-462 268 30 27" xml:space="preserve" xmlns="http://www.w3.org/2000/svg"><style>.hst0{fill:#101820}</style><path class="hst0" d="M-437 287c-1.9 0-3.4 1.3-3.9 3h-4.3c-.4-1.7-2-3-3.9-3s-3.4 1.3-3.9 3h-1c-1.2.1-2.2-.9-2.2-2-.1-1.2.9-2.2 2-2.2l19.2-1.7c.4 0 .8-.4.9-.8l2-10c.1-.3 0-.6-.2-.8-.2-.2-.5-.4-.8-.4h-21.4c-.5-2.3-2.5-4-4.9-4h-1.7c-.6 0-1 .4-1 1s.4 1 1 1h1.7c1.4 0 2.7 1 2.9 2.4l2.2 11.3h-.1c-2.1.2-3.7 2-3.7 4.1 0 2.3 1.8 4.2 4.1 4.2h1c.4 1.7 2 3 3.9 3s3.4-1.3 3.9-3h4.3c.4 1.7 2 3 3.9 3 2.2 0 4-1.8 4-4s-1.8-4.1-4-4.1zm-17-13h19.8l-1.6 8.1-16.2 1.5-2-9.6zm5 19c-1.1 0-2-.9-2-2s.9-2 2-2 2 .9 2 2-.9 2-2 2zm12 0c-1.1 0-2-.9-2-2s.9-2 2-2 2 .9 2 2-.9 2-2 2z"/></symbol><symbol viewBox="-462.6 275.4 11.1 11.1" id="icon-close" xmlns="http://www.w3.org/2000/svg"><path d="M-451.6 285.4l-4.5-4.4 4.5-4.5c.1-.1.2-.3.2-.4 0-.2-.1-.3-.2-.4-.2-.2-.6-.2-.8 0l-4.5 4.5-4.5-4.6c-.2-.2-.6-.2-.8 0-.1.1-.2.3-.2.4 0 .2.1.3.2.4l4.5 4.5-4.5 4.5c-.2.2-.2.6 0 .8.2.2.6.2.8 0l4.5-4.5 4.5 4.5c.1.1.3.2.4.2.2 0 .3-.1.4-.2.2-.2.2-.5 0-.8z"/></symbol><symbol id="icon-completed" viewBox="-462 266 30 30" xml:space="preserve" xmlns="http://www.w3.org/2000/svg"><style>.jst0{fill:#101820}</style><g id="jLayer_28"><path class="jst0" d="M-447 296c-8.3 0-15-6.7-15-15s6.7-15 15-15 15 6.7 15 15-6.7 15-15 15zm0-28c-7.2 0-13 5.8-13 13s5.8 13 13 13 13-5.8 13-13-5.8-13-13-13z"/><path class="jst0" d="M-449.3 287c-.3 0-.5-.1-.7-.3l-4.7-5c-.3-.4-.3-1.1.1-1.4.4-.3.9-.3 1.3 0l3.9 4.2 8.6-9.2c.3-.4 1-.5 1.4-.1.4.3.5 1 .1 1.4l-.1.1-9.3 10c-.1.2-.4.3-.6.3z"/></g></symbol><symbol viewBox="-454 259 50 44" id="icon-gallery" xmlns="http://www.w3.org/2000/svg"><path d="M-409.6 259h-38.8c-3.1 0-5.6 2.5-5.6 5.6v32.8c0 3.1 2.5 5.6 5.6 5.6h38.8c3.1 0 5.6-2.5 5.6-5.6v-32.8c0-3.1-2.5-5.6-5.6-5.6zm3.6 6.6v24l-13.8-13.8c-.4-.4-1-.4-1.4 0l-13.3 13.3-5.8-5.8c-.4-.4-1-.4-1.4 0l-10.3 10.3v-28c0-2.5 2.1-4.6 4.6-4.6h36.8c2.5 0 4.6 2.1 4.6 4.6zm-46 30.8l11-11 12.8 12.8c.2.2.5.3.7.3s.5-.1.7-.3c.4-.4.4-1 0-1.4l-6.3-6.3 12.6-12.6 14.5 14.5v4c0 2.5-2.1 4.6-4.6 4.6h-36.8c-2.5 0-4.6-2.1-4.6-4.6z"/><path d="M-435 277.5c3 0 5.5-2.5 5.5-5.5s-2.5-5.5-5.5-5.5-5.5 2.5-5.5 5.5 2.5 5.5 5.5 5.5zm0-9c1.9 0 3.5 1.6 3.5 3.5s-1.6 3.5-3.5 3.5-3.5-1.6-3.5-3.5 1.6-3.5 3.5-3.5z"/></symbol><symbol id="icon-in-progress" viewBox="-462 266 30 30" xml:space="preserve" xmlns="http://www.w3.org/2000/svg"><style>.lst0{fill:#101820}</style><path class="lst0" d="M-447 296c-8.3 0-15-6.7-15-15s6.7-15 15-15 15 6.7 15 15-6.7 15-15 15zm0-28c-7.2 0-13 5.8-13 13s5.8 13 13 13 13-5.8 13-13-5.8-13-13-13z"/></symbol><symbol id="icon-instagram-colored" viewBox="0 0 560 560" xml:space="preserve" xmlns="http://www.w3.org/2000/svg"><style>.mst0{fill:url(#mSVGID_1_)}.mst1{fill:url(#mSVGID_2_)}.mst2{fill:url(#mSVGID_3_)}</style><linearGradient id="mSVGID_1_" gradientUnits="userSpaceOnUse" x1="0" y1="-.076" x2="1" y2="-.076" gradientTransform="scale(-564.8644) rotate(-73.16 -.256 .419)"><stop offset="0" stop-color="#515bd4"/><stop offset=".26" stop-color="#9510b8"/><stop offset=".66" stop-color="#e51804"/><stop offset="1" stop-color="#feda77"/></linearGradient><path class="mst0" d="M280 0c-76 0-85.6.3-115.4 1.7s-50.2 6.1-68 13C78.2 21.9 62.6 31.4 47 47S21.9 78.2 14.7 96.6c-6.9 17.8-11.7 38.2-13 68C.3 194.4 0 204 0 280s.3 85.6 1.7 115.4 6.1 50.2 13 68c7.2 18.4 16.7 34 32.3 49.6 15.6 15.6 31.2 25.1 49.6 32.3 17.8 6.9 38.2 11.7 68 13 29.9 1.4 39.4 1.7 115.4 1.7s85.6-.3 115.4-1.7 50.2-6.1 68-13c18.4-7.2 34-16.7 49.6-32.3 15.6-15.6 25.1-31.2 32.3-49.6 6.9-17.8 11.7-38.2 13-68 1.4-29.9 1.7-39.4 1.7-115.4s-.3-85.6-1.7-115.4-6.1-50.2-13-68c-7.2-18.4-16.7-34-32.3-49.6-15.6-15.6-31.2-25.1-49.6-32.3-17.8-6.9-38.2-11.7-68-13C365.6.3 356 0 280 0zm0 50.5c74.8 0 83.6.3 113.1 1.6 27.3 1.2 42.1 5.8 52 9.6 13.1 5.1 22.4 11.1 32.2 20.9 9.8 9.8 15.9 19.1 20.9 32.2 3.8 9.9 8.4 24.7 9.6 52 1.3 29.5 1.6 38.4 1.6 113.1 0 74.8-.3 83.6-1.6 113.1-1.2 27.3-5.8 42.1-9.6 52-5.1 13.1-11.1 22.4-20.9 32.2-9.8 9.8-19.1 15.9-32.2 20.9-9.9 3.8-24.7 8.4-52 9.6-29.5 1.3-38.4 1.6-113.1 1.6-74.8 0-83.6-.3-113.1-1.6-27.3-1.2-42.1-5.8-52-9.6-13.1-5.1-22.4-11.1-32.2-20.9S66.8 458.1 61.8 445c-3.8-9.9-8.4-24.7-9.6-52-1.3-29.5-1.6-38.4-1.6-113.1 0-74.8.3-83.6 1.6-113.1 1.2-27.3 5.8-42.1 9.6-52 5.1-13.1 11.1-22.4 20.9-32.2s19.1-15.9 32.2-20.9c9.9-3.8 24.7-8.4 52-9.6 29.5-1.4 38.3-1.6 113.1-1.6z"/><linearGradient id="mSVGID_2_" gradientUnits="userSpaceOnUse" x1="0" y1="-.076" x2="1" y2="-.076" gradientTransform="scale(-564.8644) rotate(-73.16 -.256 .419)"><stop offset="0" stop-color="#515bd4"/><stop offset=".26" stop-color="#9510b8"/><stop offset=".66" stop-color="#e51804"/><stop offset="1" stop-color="#ffbf00"/></linearGradient><path class="mst1" d="M280 373.3c-51.5 0-93.3-41.8-93.3-93.3s41.8-93.3 93.3-93.3 93.3 41.8 93.3 93.3-41.8 93.3-93.3 93.3zm0-237.1c-79.4 0-143.8 64.4-143.8 143.8S200.6 423.8 280 423.8 423.8 359.4 423.8 280 359.4 136.2 280 136.2z"/><linearGradient id="mSVGID_3_" gradientUnits="userSpaceOnUse" x1="0" y1="-.252" x2="1" y2="-.252" gradientTransform="scale(-564.8644) rotate(-73.16 -.256 .419)"><stop offset="0" stop-color="#515bd4"/><stop offset=".26" stop-color="#9510b8"/><stop offset=".66" stop-color="#e51804"/><stop offset="1" stop-color="#ffbf00"/></linearGradient><path class="mst2" d="M463.1 130.5c0 18.6-15 33.6-33.6 33.6s-33.6-15-33.6-33.6 15-33.6 33.6-33.6 33.6 15.1 33.6 33.6z"/></symbol><symbol viewBox="-461 267 28 27" id="icon-jumprope" xmlns="http://www.w3.org/2000/svg"><path d="M-436 277c-1.7 0-3 1.3-3 3v7c0 .6.4 1 1 1h.9c-.5 2.3-2.5 4-4.9 4-3.2 0-6-1.6-7.6-4.1 3.7-.7 6.6-3.9 6.6-7.9v-7c0-2.8-2.2-5-5-5s-5 2.2-5 5v10c0 1 .1 1.9.4 2.8-2.6-.7-4.4-3.1-4.4-5.8v-2h1c.6 0 1-.4 1-1v-7c0-1.7-1.3-3-3-3s-3 1.3-3 3v7c0 .6.4 1 1 1h1v2c0 4.1 3.2 7.5 7.2 8 1.8 3.6 5.5 6 9.8 6 3.5 0 6.4-2.6 6.9-6h1.1c.6 0 1-.4 1-1v-7c0-1.7-1.3-3-3-3zm-14.5 9c-.3-1-.5-2-.5-3v-10c0-1.7 1.3-3 3-3s3 1.3 3 3v7c0 3.1-2.4 5.7-5.5 6z"/></symbol><symbol viewBox="-95 74 267 401" id="icon-locked" xmlns="http://www.w3.org/2000/svg"><path d="M157 223.7h-13.3v-45.5C143.1 120.9 96.8 74.6 39.6 74-18.5 73.4-66 120-66.6 178.1v45.5H-80c-8.3 0-15 6.7-15 15V460c0 8.3 6.7 15 15 15h237c8.3 0 15-6.7 15-15V238.7c0-8.3-6.7-15-15-15zM37.7 103.9c41.5-.5 75.5 32.8 76 74.3v45.5H-36.6v-44.8-.7c.5-40.9 33.5-73.9 74.3-74.3zM142 445H-65V253.7H142V445z"/><path d="M38.5 284.7C12.9 284.7-8 305.5-8 331.2c0 20.4 13.2 37.8 31.5 44V399c0 8.3 6.7 15 15 15s15-6.7 15-15v-23.8c18.3-6.3 31.5-23.6 31.5-44 0-25.7-20.8-46.5-46.5-46.5zm0 63c-9.1 0-16.5-7.4-16.5-16.5s7.4-16.5 16.5-16.5S55 322.1 55 331.2s-7.3 16.5-16.5 16.5z"/></symbol><symbol viewBox="-446.9 260.5 63.9 41" id="icon-mat" xmlns="http://www.w3.org/2000/svg"><path d="M-384.3 280.1h-21.1c-.7 0 0-.7 0-.7l.8-.8c3.4-4.4.5-11 .1-12-1.6-2.8-3.5-4.3-5.4-5-.1-.1-.3-.1-.5-.2-.9-.3-1.9-.6-3-.9-4.9-.7-9.5 1.6-9.5 1.6-4.2 2.4-14.9 8.7-19.7 13.3-.2.2-.5.4-.7.7-.2.2-.3.4-.5.5l-.1.1c-.1.2-.3.3-.4.5-.9 1.3-1.7 2.8-2.2 4.7-1.5 4.8.1 15.5 9.1 18.9.4.1 2.1.6 4.8.6h24.7c.9 0 2.9-.3 4.9-2.1l18.3-16.4.5-.5c2.6-2.2-.1-2.3-.1-2.3zm-6.3 4.6l-12.9 11.7c-2 1.8-4.1 2.1-5.1 2.2h-24.6c-1.9 0-4-.7-4.1-.8-.6-.3-1.2-.6-1.9-1-7-4.5-4.9-13.1-4.6-14.3v-.1-.1c1.5-4.8 5.1-8.3 11.8-8.5.8 0 3.3.2 5.4 1.9.5.4 1.1.9 1.6 1.6 1 1.3 3.4 5.2 2.3 9.7-.9 2.9-2.2 4.2-3.9 5.4-1.8 1.2-5.2 2.3-8.5.3-1.9-1.3-3.4-3.5-3.1-6.5.3-3 3.3-5.1 6.1-4.5 2.7.6 4.3 4.7 1.4 6.4-1.4.6-2.2.2-2.8-.5 0 0-.8-.7-1.8-.3-1 .5-.7 1.9-.7 1.9 1.1 1.6 3.2 2.8 6.3 1.7.7-.3 1.3-.6 1.8-1.1l.1-.1.3-.3c1.1-1.3 3.6-5.3-.4-9.8-2.3-1.9-9.5-3.9-12.6 4.2-.1.3-.2.5-.3.8v.1c-.5 1.8-.5 4 .6 6.5 2.4 5.5 9.4 7 14.5 4.3.9-.5 1.8-1.1 2.5-1.8l12.3-9.6s.9-.8 2.2-.8h18c1.8-.3.3 1.2.1 1.4z"/></symbol><symbol viewBox="-459.9 268.5 20.3 24.9" id="icon-play" xmlns="http://www.w3.org/2000/svg"><path d="M-440 280.2l-18.3-11.5c-.3-.2-.7-.2-1 0-.3.2-.5.5-.5.9v22.9c0 .4.2.7.5.9.2.1.3.1.5.1s.4-.1.5-.2l18.3-11.5c.3-.2.5-.5.5-.8s-.2-.7-.5-.8zm-17.9 10.5v-19.3l15.4 9.7-15.4 9.6z"/></symbol><symbol viewBox="-450 267 37 28" id="icon-quotes" xmlns="http://www.w3.org/2000/svg"><path d="M-449.6 275.8c.3.8.7 1.5 1.3 2.1.6.7 1.5 1.2 2.5 1.6 1 .4 2.4.6 4 .6h2.2c-.3 2.7-1.2 5.1-2.9 7-1.7 1.9-4 3.6-7 5.1l1.8 2.8c3.9-1.7 7.3-4.1 10.1-7.4 2.8-3.2 4.2-6.5 4.2-9.7 0-3.4-.8-6.1-2.4-8.1-1.6-1.9-4-2.9-7-2.9-1.9 0-3.6.6-5 1.9-1.4 1.3-2.1 2.8-2.1 4.5-.1 1 0 1.8.3 2.5m20.4 0c.3.8.7 1.5 1.3 2.1.6.7 1.5 1.2 2.5 1.6 1 .4 2.4.6 4 .6h2.2c-.3 2.7-1.2 5.1-2.9 7-1.7 1.9-4 3.6-7 5.1l1.8 2.8c3.9-1.7 7.3-4.1 10.1-7.4s4.2-6.5 4.2-9.7c0-3.4-.8-6.1-2.4-8.1-1.6-1.9-4-2.9-7-2.9-1.9 0-3.6.6-5 1.9-1.4 1.3-2.1 2.8-2.1 4.5-.1 1 0 1.8.3 2.5"/></symbol><symbol viewBox="-459.1 246.6 16.7 41" id="icon-rubberband" xmlns="http://www.w3.org/2000/svg"><path d="M-445.9 287c-.2.6-.8.8-1.4.6-5.8-2.7-12.1-10.3-7.9-22.3 1.4-4.1-1.9-6.8-3.5-7.9-.4-.3-.6-.8-.3-1.3l4.5-8.9c.3-.5 1-.7 1.5-.4 4.5 3 7.1 9.1 1.2 20.9-2.3 4.6 5.9 7.8 8.7 8.7.5.2.8.8.6 1.3l-3.4 9.3z"/></symbol><symbol id="icon-socials-fb" viewBox="0 0 10 16" xml:space="preserve" xmlns="http://www.w3.org/2000/svg"><style>.tst0{fill:#262930}</style><path class="tst0" d="M6.7 4.4s.1-.1.2-.1H9c.3 0 .5-.2.5-.5V1c0-.3-.2-.5-.5-.5H6.8C5.7.5 4.7.9 3.9 1.7c-.8.7-1.2 1.7-1.2 2.8v1.6H1c-.3 0-.5.2-.5.5v2.8c0 .3.2.5.5.5h1.7V15c0 .3.2.5.5.5h2.9c.3 0 .5-.2.5-.5V9.9h1.7c.2 0 .4-.2.5-.4l.7-2.8c0-.1 0-.3-.1-.4-.1-.1-.2-.2-.4-.2H6.6V4.5s0-.1.1-.1zm-.6 2.7h2.3l-.5 1.8H6.1c-.3 0-.5.2-.5.5v5.1H3.7V9.4c0-.3-.2-.5-.5-.5H1.5V7.1h1.7c.3 0 .5-.2.5-.5V4.5c0-.8.3-1.5.9-2.1.6-.6 1.4-.9 2.2-.9h1.7v1.8H6.8c-.3 0-.6.1-.8.3-.3.3-.4.6-.4.9v2.1c0 .3.2.5.5.5z"/></symbol><symbol id="icon-socials-ig" viewBox="0 0 16 16" xml:space="preserve" xmlns="http://www.w3.org/2000/svg"><style>.ust0{fill:#262930}</style><path class="ust0" d="M10.4 5.6c-.5-.5-1.2-.8-1.9-.9-.7-.1-1.4 0-2 .3s-1.1.9-1.4 1.5-.4 1.3-.3 2 .4 1.3.9 1.8 1.1.8 1.8.9c.7.1 1.4 0 2-.3.6-.3 1.1-.8 1.4-1.4.3-.6.4-1.3.3-2 0-.7-.3-1.4-.8-1.9zM10.1 9c-.2.4-.6.8-1 1s-.9.3-1.4.2c-.5-.1-.9-.3-1.3-.6-.3-.3-.6-.8-.6-1.3-.1-.5 0-1 .2-1.4.2-.4.6-.8 1-1 .4-.2.9-.3 1.4-.2.5.1.9.3 1.3.6.3.3.6.8.6 1.3.1.5 0 1-.2 1.4zM11.9 3.6c-.3 0-.5.2-.5.5s.2.5.5.5.5-.2.5-.5-.3-.5-.5-.5z"/><path class="ust0" d="M11.5.5h-7c-2.2 0-4 1.8-4 4v7c0 2.2 1.8 4 4 4h7c2.2 0 4-1.8 4-4v-7c0-2.2-1.8-4-4-4zm3 11c0 1.7-1.3 3-3 3h-7c-1.7 0-3-1.3-3-3v-7c0-1.7 1.3-3 3-3h7c1.7 0 3 1.3 3 3v7z"/></symbol><symbol fill="none" viewBox="0 0 16 14" id="icon-socials-in" xmlns="http://www.w3.org/2000/svg"><path fill-rule="evenodd" clip-rule="evenodd" d="M1.5 1.868C1.5 1.4 1.892 1 2.4 1s.9.4.9.868a.885.885 0 01-.9.869c-.508 0-.9-.4-.9-.869zM2.4 0C1.361 0 .5.826.5 1.868c0 1.043.861 1.869 1.9 1.869s1.9-.826 1.9-1.869C4.3.826 3.439 0 2.4 0zm8.4 5.105a3.75 3.75 0 00-2.62 1.06A3.559 3.559 0 007.1 8.71V13h1.8V8.71c0-.499.203-.975.56-1.325.358-.349.84-.543 1.34-.543.5 0 .982.194 1.34.543.357.35.56.826.56 1.325V13h1.8V8.71a3.56 3.56 0 00-1.08-2.545 3.75 3.75 0 00-2.62-1.06zm0-1A4.75 4.75 0 007.48 5.45 4.559 4.559 0 006.1 8.71v4.79a.5.5 0 00.5.5h2.8a.5.5 0 00.5-.5V8.71c0-.226.092-.446.26-.61a.917.917 0 01.64-.258c.242 0 .473.094.64.258.168.164.26.384.26.61v4.79a.5.5 0 00.5.5H15a.5.5 0 00.5-.5V8.71a4.559 4.559 0 00-1.38-3.26 4.75 4.75 0 00-3.32-1.345zM.5 5.29a.5.5 0 01.5-.5h2.8a.5.5 0 01.5.5v8.21a.5.5 0 01-.5.5H1a.5.5 0 01-.5-.5V5.29zm1 .5V13h1.8V5.79H1.5z" fill="#262930"/></symbol><symbol id="icon-socials-tw" viewBox="0 0 16 13" xml:space="preserve" xmlns="http://www.w3.org/2000/svg"><style>.wst0{fill:#262930}</style><path class="wst0" d="M15.5 1.1c0-.2 0-.4-.2-.5-.2-.1-.4-.1-.6 0-.5.3-1 .6-1.6.8-.4-.4-.9-.7-1.5-.8-.7-.2-1.4-.1-2 .1C9 1 8.5 1.4 8.1 2c-.4.5-.6 1.2-.6 1.9V4c-.9 0-1.7-.3-2.5-.6-.9-.5-1.7-1.2-2.3-2-.1-.2-.3-.3-.5-.3-.2.1-.3.2-.4.3 0 .1-.7 1.6-.6 3.4.1 1.6.7 3.7 3.2 5.1-1 .5-2.2.8-3.4.7-.2 0-.4.1-.5.4s0 .5.2.6c1.6.9 3.2 1.3 4.9 1.3 1.6 0 3.1-.4 4.4-1.2 2.7-1.6 4.2-4.4 4.2-7.9v-.4c.6-.6 1.1-1.4 1.3-2.3zM13.3 3c-.1.1-.2.3-.1.4v.4c0 3.1-1.3 5.6-3.7 7-2 1.1-4.3 1.4-6.6.6 1-.2 1.9-.6 2.7-1.2.3 0 .4-.1.4-.3 0-.2-.1-.3-.3-.4C1.6 7.7 2 4.2 2.5 2.7c.5.6 1.3 1.2 2 1.6 1.1.5 2.3.8 3.5.7.3 0 .5-.2.5-.5v-.6c0-.5.1-1 .4-1.4.3-.4.7-.7 1.1-.8.5-.2.9-.2 1.4-.1.5.1.9.4 1.2.7.1.1.3.2.5.2.3-.1.6-.2.8-.3-.1.3-.3.5-.6.8z"/></symbol><symbol id="icon-socials-yt" viewBox="0 0 114.9 81.3" xml:space="preserve" xmlns="http://www.w3.org/2000/svg"><style>.xst0{fill:#062b31}</style><path class="xst0" d="M111.5 18.9s-1.1-7.5-4.4-10.8c-4.2-4.3-8.9-4.3-11-4.6-15.4-1.1-38.5-1.1-38.5-1.1v.1s-23.1 0-38.5 1.1c-2.2.3-6.8.3-11 4.6C4.8 11.5 3.7 19 3.7 19 3 24.7 2.6 30.6 2.6 36.4v8.2c0 5.9.4 11.8 1.1 17.6 0 0 1.1 7.5 4.4 10.8 4.2 4.3 9.7 4.2 12.1 4.7 8.8.8 37.4 1.1 37.4 1.1s23.1 0 38.5-1.1c2.1-.3 6.8-.3 11-4.6 3.3-3.3 4.4-10.8 4.4-10.8.7-5.8 1.1-11.7 1.1-17.6v-8.2c-.1-5.9-.5-11.8-1.1-17.6zm-5.6 25.7c0 5.6-.4 11.2-1 16.7-.4 2.5-1.5 6.1-2.5 7-2.1 2.2-4.3 2.4-6.3 2.6l-.6.1c-14.7 1-36.9 1.1-37.9 1.1-1.2 0-28-.3-36.6-1-.5-.1-1-.2-1.6-.2-2.3-.3-4.9-.6-6.7-2.5-1-1-2.1-4.5-2.5-7-.6-5.5-1-11.1-1-16.7v-8.2c0-5.6.4-11.2 1-16.7.4-2.6 1.6-6.1 2.5-7.1 2.1-2.2 4.3-2.4 6.3-2.6l.7-.1c15-1.1 37.7-1.1 37.9-1.1.2 0 22.9 0 37.9 1.1l.7.1c2 .2 4.2.4 6.3 2.6 1 1 2.1 4.5 2.5 7.1.6 5.5 1 11.1 1 16.7v8.1z"/><path class="xst0" d="M76.9 38.4L48.9 22c-.8-.5-1.7-.5-2.5 0-.8.4-1.3 1.3-1.3 2.2V57c0 .9.5 1.7 1.3 2.2.4.2.8.3 1.2.3.4 0 .9-.1 1.3-.3l28-16.4c.8-.4 1.2-1.3 1.2-2.2s-.4-1.7-1.2-2.2zM50.2 52.6V28.5l20.5 12-20.5 12.1z"/></symbol><symbol viewBox="-95 74 267 401" id="icon-unlocked" xmlns="http://www.w3.org/2000/svg"><path d="M157 223.7h-13.3v-45.5C143.1 120.9 96.8 74.6 39.6 74-18.5 73.4-66 120-66.6 178.1c0 8.3 6.7 15 15 15s15-6.7 15-15c.5-40.8 33.4-73.8 74.3-74.3 41.5-.5 75.5 32.8 76 74.3v45.5H-80c-8.3 0-15 6.7-15 15V460c0 8.3 6.7 15 15 15h237c8.3 0 15-6.7 15-15V238.7c0-8.3-6.7-15-15-15zM142 445H-65V253.7H142V445z"/><path d="M38.5 284.7C12.9 284.7-8 305.5-8 331.2c0 20.4 13.2 37.8 31.5 44V399c0 8.3 6.7 15 15 15s15-6.7 15-15v-23.8c18.3-6.3 31.5-23.6 31.5-44 0-25.7-20.8-46.5-46.5-46.5zm0 63c-9.1 0-16.5-7.4-16.5-16.5s7.4-16.5 16.5-16.5S55 322.1 55 331.2s-7.3 16.5-16.5 16.5z"/></symbol><symbol viewBox="-465 274 20 14" id="icon-weights" xmlns="http://www.w3.org/2000/svg"><path d="M-446.7 276.1h-.3V275c0-.6-.4-1-1-1h-1c-.6 0-1 .4-1 1v5h-10v-5c0-.6-.4-1-1-1h-1c-.6 0-1 .4-1 1v1.1h-.3c-.9 0-1.7.7-1.7 1.7v6.5c0 .9.7 1.7 1.7 1.7H-463v1.1c0 .6.4 1 1 1h1c.6 0 1-.4 1-1v-5h10v5c0 .6.4 1 1 1h1c.6 0 1-.4 1-1V286h.3c.9 0 1.7-.7 1.7-1.7v-6.5c0-1-.7-1.7-1.7-1.7z"/></symbol></svg>