<svg xmlns="http://www.w3.org/2000/svg" viewBox="-95 74 267 401" width="31.96" height="48"><path d="M157 223.7h-13.3v-45.5C143.1 120.9 96.8 74.6 39.6 74-18.5 73.4-66 120-66.6 178.1v45.5H-80c-8.3 0-15 6.7-15 15V460c0 8.3 6.7 15 15 15h237c8.3 0 15-6.7 15-15V238.7c0-8.3-6.7-15-15-15zM37.7 103.9c41.5-.5 75.5 32.8 76 74.3v45.5H-36.6v-44.8-.7c.5-40.9 33.5-73.9 74.3-74.3zM142 445H-65V253.7H142V445z"/><path d="M38.5 284.7C12.9 284.7-8 305.5-8 331.2c0 20.4 13.2 37.8 31.5 44V399c0 8.3 6.7 15 15 15s15-6.7 15-15v-23.8c18.3-6.3 31.5-23.6 31.5-44 0-25.7-20.8-46.5-46.5-46.5zm0 63c-9.1 0-16.5-7.4-16.5-16.5s7.4-16.5 16.5-16.5S55 322.1 55 331.2s-7.3 16.5-16.5 16.5z"/></svg>