<svg width="16" height="14" fill="none" xmlns="http://www.w3.org/2000/svg" viewBox="0 0 16 14"><path fill-rule="evenodd" clip-rule="evenodd" d="M1.5 1.868C1.5 1.4 1.892 1 2.4 1s.9.4.9.868a.885.885 0 01-.9.869c-.508 0-.9-.4-.9-.869zM2.4 0C1.361 0 .5.826.5 1.868c0 1.043.861 1.869 1.9 1.869s1.9-.826 1.9-1.869C4.3.826 3.439 0 2.4 0zm8.4 5.105a3.75 3.75 0 00-2.62 1.06A3.559 3.559 0 007.1 8.71V13h1.8V8.71c0-.499.203-.975.56-1.325.358-.349.84-.543 1.34-.543.5 0 .982.194 1.34.543.357.35.56.826.56 1.325V13h1.8V8.71a3.56 3.56 0 00-1.08-2.545 3.75 3.75 0 00-2.62-1.06zm0-1A4.75 4.75 0 007.48 5.45 4.559 4.559 0 006.1 8.71v4.79a.5.5 0 00.5.5h2.8a.5.5 0 00.5-.5V8.71c0-.226.092-.446.26-.61a.917.917 0 01.64-.258c.242 0 .473.094.64.258.168.164.26.384.26.61v4.79a.5.5 0 00.5.5H15a.5.5 0 00.5-.5V8.71a4.559 4.559 0 00-1.38-3.26 4.75 4.75 0 00-3.32-1.345zM.5 5.29a.5.5 0 01.5-.5h2.8a.5.5 0 01.5.5v8.21a.5.5 0 01-.5.5H1a.5.5 0 01-.5-.5V5.29zm1 .5V13h1.8V5.79H1.5z" fill="#262930"/></svg>