<svg version="1.1" id="tLayer_1" xmlns="http://www.w3.org/2000/svg" x="0" y="0" viewBox="0 0 10 16" xml:space="preserve" width="10" height="16"><style>.tst0{fill:#262930}</style><path class="tst0" d="M6.7 4.4s.1-.1.2-.1H9c.3 0 .5-.2.5-.5V1c0-.3-.2-.5-.5-.5H6.8C5.7.5 4.7.9 3.9 1.7c-.8.7-1.2 1.7-1.2 2.8v1.6H1c-.3 0-.5.2-.5.5v2.8c0 .3.2.5.5.5h1.7V15c0 .3.2.5.5.5h2.9c.3 0 .5-.2.5-.5V9.9h1.7c.2 0 .4-.2.5-.4l.7-2.8c0-.1 0-.3-.1-.4-.1-.1-.2-.2-.4-.2H6.6V4.5s0-.1.1-.1zm-.6 2.7h2.3l-.5 1.8H6.1c-.3 0-.5.2-.5.5v5.1H3.7V9.4c0-.3-.2-.5-.5-.5H1.5V7.1h1.7c.3 0 .5-.2.5-.5V4.5c0-.8.3-1.5.9-2.1.6-.6 1.4-.9 2.2-.9h1.7v1.8H6.8c-.3 0-.6.1-.8.3-.3.3-.4.6-.4.9v2.1c0 .3.2.5.5.5z"/></svg>