<svg version="1.1" id="mLayer_1" xmlns="http://www.w3.org/2000/svg" x="0" y="0" viewBox="0 0 560 560" xml:space="preserve" width="48" height="48"><style>.mst0{fill:url(#mSVGID_1_)}.mst1{fill:url(#mSVGID_2_)}.mst2{fill:url(#mSVGID_3_)}</style><linearGradient id="mSVGID_1_" gradientUnits="userSpaceOnUse" x1="0" y1="-.076" x2="1" y2="-.076" gradientTransform="scale(-564.8644) rotate(-73.16 -.256 .419)"><stop offset="0" stop-color="#515bd4"/><stop offset=".26" stop-color="#9510b8"/><stop offset=".66" stop-color="#e51804"/><stop offset="1" stop-color="#feda77"/></linearGradient><path class="mst0" d="M280 0c-76 0-85.6.3-115.4 1.7s-50.2 6.1-68 13C78.2 21.9 62.6 31.4 47 47S21.9 78.2 14.7 96.6c-6.9 17.8-11.7 38.2-13 68C.3 194.4 0 204 0 280s.3 85.6 1.7 115.4 6.1 50.2 13 68c7.2 18.4 16.7 34 32.3 49.6 15.6 15.6 31.2 25.1 49.6 32.3 17.8 6.9 38.2 11.7 68 13 29.9 1.4 39.4 1.7 115.4 1.7s85.6-.3 115.4-1.7 50.2-6.1 68-13c18.4-7.2 34-16.7 49.6-32.3 15.6-15.6 25.1-31.2 32.3-49.6 6.9-17.8 11.7-38.2 13-68 1.4-29.9 1.7-39.4 1.7-115.4s-.3-85.6-1.7-115.4-6.1-50.2-13-68c-7.2-18.4-16.7-34-32.3-49.6-15.6-15.6-31.2-25.1-49.6-32.3-17.8-6.9-38.2-11.7-68-13C365.6.3 356 0 280 0zm0 50.5c74.8 0 83.6.3 113.1 1.6 27.3 1.2 42.1 5.8 52 9.6 13.1 5.1 22.4 11.1 32.2 20.9 9.8 9.8 15.9 19.1 20.9 32.2 3.8 9.9 8.4 24.7 9.6 52 1.3 29.5 1.6 38.4 1.6 113.1 0 74.8-.3 83.6-1.6 113.1-1.2 27.3-5.8 42.1-9.6 52-5.1 13.1-11.1 22.4-20.9 32.2-9.8 9.8-19.1 15.9-32.2 20.9-9.9 3.8-24.7 8.4-52 9.6-29.5 1.3-38.4 1.6-113.1 1.6-74.8 0-83.6-.3-113.1-1.6-27.3-1.2-42.1-5.8-52-9.6-13.1-5.1-22.4-11.1-32.2-20.9S66.8 458.1 61.8 445c-3.8-9.9-8.4-24.7-9.6-52-1.3-29.5-1.6-38.4-1.6-113.1 0-74.8.3-83.6 1.6-113.1 1.2-27.3 5.8-42.1 9.6-52 5.1-13.1 11.1-22.4 20.9-32.2s19.1-15.9 32.2-20.9c9.9-3.8 24.7-8.4 52-9.6 29.5-1.4 38.3-1.6 113.1-1.6z"/><linearGradient id="mSVGID_2_" gradientUnits="userSpaceOnUse" x1="0" y1="-.076" x2="1" y2="-.076" gradientTransform="scale(-564.8644) rotate(-73.16 -.256 .419)"><stop offset="0" stop-color="#515bd4"/><stop offset=".26" stop-color="#9510b8"/><stop offset=".66" stop-color="#e51804"/><stop offset="1" stop-color="#ffbf00"/></linearGradient><path class="mst1" d="M280 373.3c-51.5 0-93.3-41.8-93.3-93.3s41.8-93.3 93.3-93.3 93.3 41.8 93.3 93.3-41.8 93.3-93.3 93.3zm0-237.1c-79.4 0-143.8 64.4-143.8 143.8S200.6 423.8 280 423.8 423.8 359.4 423.8 280 359.4 136.2 280 136.2z"/><linearGradient id="mSVGID_3_" gradientUnits="userSpaceOnUse" x1="0" y1="-.252" x2="1" y2="-.252" gradientTransform="scale(-564.8644) rotate(-73.16 -.256 .419)"><stop offset="0" stop-color="#515bd4"/><stop offset=".26" stop-color="#9510b8"/><stop offset=".66" stop-color="#e51804"/><stop offset="1" stop-color="#ffbf00"/></linearGradient><path class="mst2" d="M463.1 130.5c0 18.6-15 33.6-33.6 33.6s-33.6-15-33.6-33.6 15-33.6 33.6-33.6 33.6 15.1 33.6 33.6z"/></svg>