<svg xmlns="http://www.w3.org/2000/svg" viewBox="-154.4 25 374.9 512" width="35.15" height="48"><path d="M220.2 467.2L193 167.6c-.8-8.3-7.7-14.6-16-14.6h-48v-32c0-25.7-10-49.9-28-68-18.1-18-42.3-28-68-28-52.9 0-96 43.1-96 96v32h-48c-8.3 0-15.2 6.3-15.9 14.6l-27.2 299.6c-1.6 17.9 4.4 35.7 16.5 49 12.1 13.2 29.3 20.8 47.3 20.8h246.9c18 0 35.2-7.6 47.3-20.8 11.9-13.3 17.9-31.1 16.3-49zM-31 121c0-35.3 28.7-64 64-64 17.2 0 33.3 6.6 45.3 18.7S97 103.8 97 121v32H-31v-32zm211.1 373.6c-6.1 6.7-14.5 10.4-23.6 10.4H-90.4c-9.1 0-17.5-3.7-23.6-10.4-6.1-6.7-9.1-15.4-8.2-24.5L-96.4 185H-63v48c0 8.8 7.2 16 16 16s16-7.2 16-16v-48H97v48c0 8.8 7.2 16 16 16s16-7.2 16-16v-48h33.4l25.9 285.1c.8 9.1-2.1 17.8-8.2 24.5z"/></svg>