<svg version="1.1" id="hLayer_1" xmlns="http://www.w3.org/2000/svg" x="0" y="0" viewBox="-462 268 30 27" xml:space="preserve" width="30" height="27"><style>.hst0{fill:#101820}</style><path class="hst0" d="M-437 287c-1.9 0-3.4 1.3-3.9 3h-4.3c-.4-1.7-2-3-3.9-3s-3.4 1.3-3.9 3h-1c-1.2.1-2.2-.9-2.2-2-.1-1.2.9-2.2 2-2.2l19.2-1.7c.4 0 .8-.4.9-.8l2-10c.1-.3 0-.6-.2-.8-.2-.2-.5-.4-.8-.4h-21.4c-.5-2.3-2.5-4-4.9-4h-1.7c-.6 0-1 .4-1 1s.4 1 1 1h1.7c1.4 0 2.7 1 2.9 2.4l2.2 11.3h-.1c-2.1.2-3.7 2-3.7 4.1 0 2.3 1.8 4.2 4.1 4.2h1c.4 1.7 2 3 3.9 3s3.4-1.3 3.9-3h4.3c.4 1.7 2 3 3.9 3 2.2 0 4-1.8 4-4s-1.8-4.1-4-4.1zm-17-13h19.8l-1.6 8.1-16.2 1.5-2-9.6zm5 19c-1.1 0-2-.9-2-2s.9-2 2-2 2 .9 2 2-.9 2-2 2zm12 0c-1.1 0-2-.9-2-2s.9-2 2-2 2 .9 2 2-.9 2-2 2z"/></svg>