<svg version="1.1" id="wLayer_1" xmlns="http://www.w3.org/2000/svg" x="0" y="0" viewBox="0 0 16 13" xml:space="preserve" width="16" height="13"><style>.wst0{fill:#262930}</style><path class="wst0" d="M15.5 1.1c0-.2 0-.4-.2-.5-.2-.1-.4-.1-.6 0-.5.3-1 .6-1.6.8-.4-.4-.9-.7-1.5-.8-.7-.2-1.4-.1-2 .1C9 1 8.5 1.4 8.1 2c-.4.5-.6 1.2-.6 1.9V4c-.9 0-1.7-.3-2.5-.6-.9-.5-1.7-1.2-2.3-2-.1-.2-.3-.3-.5-.3-.2.1-.3.2-.4.3 0 .1-.7 1.6-.6 3.4.1 1.6.7 3.7 3.2 5.1-1 .5-2.2.8-3.4.7-.2 0-.4.1-.5.4s0 .5.2.6c1.6.9 3.2 1.3 4.9 1.3 1.6 0 3.1-.4 4.4-1.2 2.7-1.6 4.2-4.4 4.2-7.9v-.4c.6-.6 1.1-1.4 1.3-2.3zM13.3 3c-.1.1-.2.3-.1.4v.4c0 3.1-1.3 5.6-3.7 7-2 1.1-4.3 1.4-6.6.6 1-.2 1.9-.6 2.7-1.2.3 0 .4-.1.4-.3 0-.2-.1-.3-.3-.4C1.6 7.7 2 4.2 2.5 2.7c.5.6 1.3 1.2 2 1.6 1.1.5 2.3.8 3.5.7.3 0 .5-.2.5-.5v-.6c0-.5.1-1 .4-1.4.3-.4.7-.7 1.1-.8.5-.2.9-.2 1.4-.1.5.1.9.4 1.2.7.1.1.3.2.5.2.3-.1.6-.2.8-.3-.1.3-.3.5-.6.8z"/></svg>