<svg xmlns="http://www.w3.org/2000/svg" viewBox="-454 259 50 44" width="48" height="42.24"><path d="M-409.6 259h-38.8c-3.1 0-5.6 2.5-5.6 5.6v32.8c0 3.1 2.5 5.6 5.6 5.6h38.8c3.1 0 5.6-2.5 5.6-5.6v-32.8c0-3.1-2.5-5.6-5.6-5.6zm3.6 6.6v24l-13.8-13.8c-.4-.4-1-.4-1.4 0l-13.3 13.3-5.8-5.8c-.4-.4-1-.4-1.4 0l-10.3 10.3v-28c0-2.5 2.1-4.6 4.6-4.6h36.8c2.5 0 4.6 2.1 4.6 4.6zm-46 30.8l11-11 12.8 12.8c.2.2.5.3.7.3s.5-.1.7-.3c.4-.4.4-1 0-1.4l-6.3-6.3 12.6-12.6 14.5 14.5v4c0 2.5-2.1 4.6-4.6 4.6h-36.8c-2.5 0-4.6-2.1-4.6-4.6z"/><path d="M-435 277.5c3 0 5.5-2.5 5.5-5.5s-2.5-5.5-5.5-5.5-5.5 2.5-5.5 5.5 2.5 5.5 5.5 5.5zm0-9c1.9 0 3.5 1.6 3.5 3.5s-1.6 3.5-3.5 3.5-3.5-1.6-3.5-3.5 1.6-3.5 3.5-3.5z"/></svg>