<svg version="1.1" id="xLayer_1" xmlns="http://www.w3.org/2000/svg" x="0" y="0" viewBox="0 0 114.9 81.3" xml:space="preserve" width="48" height="33.96"><style>.xst0{fill:#062b31}</style><path class="xst0" d="M111.5 18.9s-1.1-7.5-4.4-10.8c-4.2-4.3-8.9-4.3-11-4.6-15.4-1.1-38.5-1.1-38.5-1.1v.1s-23.1 0-38.5 1.1c-2.2.3-6.8.3-11 4.6C4.8 11.5 3.7 19 3.7 19 3 24.7 2.6 30.6 2.6 36.4v8.2c0 5.9.4 11.8 1.1 17.6 0 0 1.1 7.5 4.4 10.8 4.2 4.3 9.7 4.2 12.1 4.7 8.8.8 37.4 1.1 37.4 1.1s23.1 0 38.5-1.1c2.1-.3 6.8-.3 11-4.6 3.3-3.3 4.4-10.8 4.4-10.8.7-5.8 1.1-11.7 1.1-17.6v-8.2c-.1-5.9-.5-11.8-1.1-17.6zm-5.6 25.7c0 5.6-.4 11.2-1 16.7-.4 2.5-1.5 6.1-2.5 7-2.1 2.2-4.3 2.4-6.3 2.6l-.6.1c-14.7 1-36.9 1.1-37.9 1.1-1.2 0-28-.3-36.6-1-.5-.1-1-.2-1.6-.2-2.3-.3-4.9-.6-6.7-2.5-1-1-2.1-4.5-2.5-7-.6-5.5-1-11.1-1-16.7v-8.2c0-5.6.4-11.2 1-16.7.4-2.6 1.6-6.1 2.5-7.1 2.1-2.2 4.3-2.4 6.3-2.6l.7-.1c15-1.1 37.7-1.1 37.9-1.1.2 0 22.9 0 37.9 1.1l.7.1c2 .2 4.2.4 6.3 2.6 1 1 2.1 4.5 2.5 7.1.6 5.5 1 11.1 1 16.7v8.1z"/><path class="xst0" d="M76.9 38.4L48.9 22c-.8-.5-1.7-.5-2.5 0-.8.4-1.3 1.3-1.3 2.2V57c0 .9.5 1.7 1.3 2.2.4.2.8.3 1.2.3.4 0 .9-.1 1.3-.3l28-16.4c.8-.4 1.2-1.3 1.2-2.2s-.4-1.7-1.2-2.2zM50.2 52.6V28.5l20.5 12-20.5 12.1z"/></svg>