<svg xmlns="http://www.w3.org/2000/svg" viewBox="-461 267 28 27" width="28" height="27"><path d="M-436 277c-1.7 0-3 1.3-3 3v7c0 .6.4 1 1 1h.9c-.5 2.3-2.5 4-4.9 4-3.2 0-6-1.6-7.6-4.1 3.7-.7 6.6-3.9 6.6-7.9v-7c0-2.8-2.2-5-5-5s-5 2.2-5 5v10c0 1 .1 1.9.4 2.8-2.6-.7-4.4-3.1-4.4-5.8v-2h1c.6 0 1-.4 1-1v-7c0-1.7-1.3-3-3-3s-3 1.3-3 3v7c0 .6.4 1 1 1h1v2c0 4.1 3.2 7.5 7.2 8 1.8 3.6 5.5 6 9.8 6 3.5 0 6.4-2.6 6.9-6h1.1c.6 0 1-.4 1-1v-7c0-1.7-1.3-3-3-3zm-14.5 9c-.3-1-.5-2-.5-3v-10c0-1.7 1.3-3 3-3s3 1.3 3 3v7c0 3.1-2.4 5.7-5.5 6z"/></svg>