<svg version="1.1" id="jLayer_1" xmlns="http://www.w3.org/2000/svg" x="0" y="0" viewBox="-462 266 30 30" xml:space="preserve" width="30" height="30"><style>.jst0{fill:#101820}</style><g id="jLayer_28"><path class="jst0" d="M-447 296c-8.3 0-15-6.7-15-15s6.7-15 15-15 15 6.7 15 15-6.7 15-15 15zm0-28c-7.2 0-13 5.8-13 13s5.8 13 13 13 13-5.8 13-13-5.8-13-13-13z"/><path class="jst0" d="M-449.3 287c-.3 0-.5-.1-.7-.3l-4.7-5c-.3-.4-.3-1.1.1-1.4.4-.3.9-.3 1.3 0l3.9 4.2 8.6-9.2c.3-.4 1-.5 1.4-.1.4.3.5 1 .1 1.4l-.1.1-9.3 10c-.1.2-.4.3-.6.3z"/></g></svg>