<svg xmlns="http://www.w3.org/2000/svg" viewBox="-450 267 37 28" width="37" height="28"><path d="M-449.6 275.8c.3.8.7 1.5 1.3 2.1.6.7 1.5 1.2 2.5 1.6 1 .4 2.4.6 4 .6h2.2c-.3 2.7-1.2 5.1-2.9 7-1.7 1.9-4 3.6-7 5.1l1.8 2.8c3.9-1.7 7.3-4.1 10.1-7.4 2.8-3.2 4.2-6.5 4.2-9.7 0-3.4-.8-6.1-2.4-8.1-1.6-1.9-4-2.9-7-2.9-1.9 0-3.6.6-5 1.9-1.4 1.3-2.1 2.8-2.1 4.5-.1 1 0 1.8.3 2.5m20.4 0c.3.8.7 1.5 1.3 2.1.6.7 1.5 1.2 2.5 1.6 1 .4 2.4.6 4 .6h2.2c-.3 2.7-1.2 5.1-2.9 7-1.7 1.9-4 3.6-7 5.1l1.8 2.8c3.9-1.7 7.3-4.1 10.1-7.4s4.2-6.5 4.2-9.7c0-3.4-.8-6.1-2.4-8.1-1.6-1.9-4-2.9-7-2.9-1.9 0-3.6.6-5 1.9-1.4 1.3-2.1 2.8-2.1 4.5-.1 1 0 1.8.3 2.5"/></svg>