<svg xmlns="http://www.w3.org/2000/svg" viewBox="-446.9 260.5 63.9 41" width="48" height="30.8"><path d="M-384.3 280.1h-21.1c-.7 0 0-.7 0-.7l.8-.8c3.4-4.4.5-11 .1-12-1.6-2.8-3.5-4.3-5.4-5-.1-.1-.3-.1-.5-.2-.9-.3-1.9-.6-3-.9-4.9-.7-9.5 1.6-9.5 1.6-4.2 2.4-14.9 8.7-19.7 13.3-.2.2-.5.4-.7.7-.2.2-.3.4-.5.5l-.1.1c-.1.2-.3.3-.4.5-.9 1.3-1.7 2.8-2.2 4.7-1.5 4.8.1 15.5 9.1 18.9.4.1 2.1.6 4.8.6h24.7c.9 0 2.9-.3 4.9-2.1l18.3-16.4.5-.5c2.6-2.2-.1-2.3-.1-2.3zm-6.3 4.6l-12.9 11.7c-2 1.8-4.1 2.1-5.1 2.2h-24.6c-1.9 0-4-.7-4.1-.8-.6-.3-1.2-.6-1.9-1-7-4.5-4.9-13.1-4.6-14.3v-.1-.1c1.5-4.8 5.1-8.3 11.8-8.5.8 0 3.3.2 5.4 1.9.5.4 1.1.9 1.6 1.6 1 1.3 3.4 5.2 2.3 9.7-.9 2.9-2.2 4.2-3.9 5.4-1.8 1.2-5.2 2.3-8.5.3-1.9-1.3-3.4-3.5-3.1-6.5.3-3 3.3-5.1 6.1-4.5 2.7.6 4.3 4.7 1.4 6.4-1.4.6-2.2.2-2.8-.5 0 0-.8-.7-1.8-.3-1 .5-.7 1.9-.7 1.9 1.1 1.6 3.2 2.8 6.3 1.7.7-.3 1.3-.6 1.8-1.1l.1-.1.3-.3c1.1-1.3 3.6-5.3-.4-9.8-2.3-1.9-9.5-3.9-12.6 4.2-.1.3-.2.5-.3.8v.1c-.5 1.8-.5 4 .6 6.5 2.4 5.5 9.4 7 14.5 4.3.9-.5 1.8-1.1 2.5-1.8l12.3-9.6s.9-.8 2.2-.8h18c1.8-.3.3 1.2.1 1.4z"/></svg>