<?xml version="1.0" encoding="utf-8"?>
<!-- Generator: Adobe Illustrator 18.0.0, SVG Export Plug-In . SVG Version: 6.00 Build 0)  -->
<!DOCTYPE svg PUBLIC "-//W3C//DTD SVG 1.1//EN" "http://www.w3.org/Graphics/SVG/1.1/DTD/svg11.dtd">
<svg version="1.1" id="Layer_1" xmlns="http://www.w3.org/2000/svg" xmlns:xlink="http://www.w3.org/1999/xlink" x="0px" y="0px"
	 viewBox="0 0 64 64" enable-background="new 0 0 64 64" xml:space="preserve">
<g>
	<path d="M62.3,54.1l-16-16C48.7,34.2,50,29.7,50,25C50,11.2,38.8,0,25,0S0,11.2,0,25s11.2,25,25,25c4.7,0,9.2-1.3,13.1-3.7l16,16
		c1.1,1.1,2.6,1.7,4.1,1.7s3-0.6,4.1-1.7c1.1-1.1,1.7-2.6,1.7-4.1S63.4,55.2,62.3,54.1z M59.5,59.5c-0.7,0.7-1.9,0.7-2.5,0
		L38.6,41.1l-1.4,1C33.6,44.7,29.4,46,25,46C13.4,46,4,36.6,4,25S13.4,4,25,4s21,9.4,21,21c0,4.4-1.3,8.6-3.9,12.2l-1,1.4l18.4,18.4
		c0.3,0.3,0.5,0.8,0.5,1.3C60,58.7,59.8,59.1,59.5,59.5z"/>
	<path d="M25,8C15.6,8,8,15.6,8,25s7.6,17,17,17s17-7.6,17-17S34.4,8,25,8z M25,38c-7.2,0-13-5.8-13-13s5.8-13,13-13s13,5.8,13,13
		S32.2,38,25,38z"/>
</g>
</svg>
