<?xml version="1.0" standalone="no"?>
<!DOCTYPE svg PUBLIC "-//W3C//DTD SVG 20010904//EN"
 "http://www.w3.org/TR/2001/REC-SVG-20010904/DTD/svg10.dtd">
<svg version="1.0" xmlns="http://www.w3.org/2000/svg"
 width="700.000000pt" height="700.000000pt" viewBox="0 0 700.000000 700.000000"
 preserveAspectRatio="xMidYMid meet">
<metadata>
Created by potrace 1.14, written by Peter Selinger 2001-2017
</metadata>
<g transform="translate(0.000000,700.000000) scale(0.100000,-0.100000)"
fill="#000000" stroke="none">
<path d="M5705 6977 c-16 -7 -61 -31 -100 -53 -85 -50 -323 -187 -385 -222
-25 -13 -49 -28 -55 -32 -5 -4 -30 -18 -55 -32 -25 -14 -196 -112 -380 -218
-184 -106 -486 -279 -670 -385 -184 -106 -423 -243 -530 -305 -107 -62 -235
-135 -285 -164 -49 -28 -99 -56 -110 -63 -11 -7 -27 -16 -35 -20 -8 -4 -58
-32 -110 -63 -52 -31 -102 -59 -110 -63 -8 -4 -24 -13 -35 -20 -35 -21 -179
-104 -220 -127 -59 -33 -222 -151 -282 -205 -126 -112 -248 -252 -340 -389
-81 -121 -108 -175 -276 -546 -25 -56 -141 -316 -330 -740 -80 -179 -159 -355
-176 -393 -17 -37 -31 -69 -31 -72 0 -2 -16 -39 -36 -82 -20 -43 -62 -136 -94
-208 -32 -71 -97 -218 -145 -325 -48 -107 -152 -341 -232 -520 -80 -179 -153
-343 -164 -365 -29 -65 -357 -799 -419 -940 -32 -72 -68 -151 -80 -178 -32
-67 -25 -145 16 -188 54 -58 131 -74 198 -42 32 15 78 64 233 249 224 267 550
655 571 679 15 17 60 71 102 120 41 50 82 99 91 110 10 11 86 101 169 200 83
99 173 205 198 235 26 30 96 113 156 185 109 130 192 228 211 249 8 9 65 77
230 275 11 13 25 29 30 35 6 6 32 38 59 71 27 33 54 65 60 70 6 6 27 30 46 55
19 25 40 50 46 55 6 6 94 109 195 230 162 193 965 1148 1022 1215 22 26 107
127 139 165 9 11 71 85 139 165 67 80 140 167 163 194 23 27 55 66 72 85 17
20 109 128 203 241 95 113 180 214 189 225 10 11 89 106 177 210 87 105 169
201 181 215 13 14 134 158 270 320 136 162 261 311 278 331 17 19 40 46 51 60
11 13 81 96 155 184 74 88 142 168 150 178 8 10 25 31 38 45 74 85 93 145 67
210 -40 93 -130 134 -220 99z"/>
<path d="M3794 2584 c-92 -32 -135 -145 -89 -233 18 -35 30 -44 444 -322 383
-257 551 -370 994 -669 175 -118 335 -226 357 -240 62 -40 604 -404 610 -410
3 -3 55 -39 115 -79 61 -41 211 -141 335 -224 252 -169 273 -177 354 -137 62
29 86 71 86 148 0 67 10 40 -280 777 -78 198 -191 486 -251 639 -60 153 -121
302 -135 329 -72 144 -208 268 -354 325 -121 46 -139 48 -460 57 -124 4 -268
8 -320 10 -52 2 -194 6 -315 10 -121 3 -274 8 -340 10 -66 2 -219 7 -340 10
-121 4 -255 8 -297 9 -43 2 -93 -3 -114 -10z"/>
</g>
</svg>
